HIERARCHY
ROOT Hips
{
    OFFSET 0.000000 0.000000 0.000000
    CHANNELS 6 Xposition Yposition Zposition Zrotation Xrotation Yrotation
    JOINT Spine
    {
        OFFSET -0.000000 7.814340 0.000000
        CHANNELS 3 Zrotation Xrotation Yrotation
        JOINT Spine1
        {
            OFFSET -0.000000 23.378139 0.000000
            CHANNELS 3 Zrotation Xrotation Yrotation
            JOINT Neck
            {
                OFFSET -0.000000 23.282129 2.116557
                CHANNELS 3 Zrotation Xrotation Yrotation
                JOINT Head
                {
                    OFFSET -0.000000 13.341557 -1.905937
                    CHANNELS 3 Zrotation Xrotation Yrotation
                    End Site
                    {
                        OFFSET -0.000000 23.824207 0.000000
                    }
                }
            }
            JOINT LeftShoulder
            {
                OFFSET 3.824717 21.491646 -0.175476
                CHANNELS 3 Zrotation Xrotation Yrotation
                JOINT LeftArm
                {
                    OFFSET 10.823906 0.000000 0.000000
                    CHANNELS 3 Zrotation Xrotation Yrotation
                    JOINT LeftForeArm
                    {
                        OFFSET 28.535641 0.000000 0.000000
                        CHANNELS 3 Zrotation Xrotation Yrotation
                        JOINT LeftHand
                        {
                            OFFSET 24.531507 0.000000 0.000000
                            CHANNELS 3 Zrotation Xrotation Yrotation
                            End Site
                            {
                                OFFSET 14.294524 0.000000 0.000000
                            }
                        }
                    }
                }
            }
            JOINT RightShoulder
            {
                OFFSET -3.770332 21.491646 -0.175476
                CHANNELS 3 Zrotation Xrotation Yrotation
                JOINT RightArm
                {
                    OFFSET -10.823906 0.000000 0.000000
                    CHANNELS 3 Zrotation Xrotation Yrotation
                    JOINT RightForeArm
                    {
                        OFFSET -28.535641 0.000000 0.000000
                        CHANNELS 3 Zrotation Xrotation Yrotation
                        JOINT RightHand
                        {
                            OFFSET -24.531507 0.000000 0.000000
                            CHANNELS 3 Zrotation Xrotation Yrotation
                            End Site
                            {
                                OFFSET -14.294524 0.000000 0.000000
                            }
                        }
                    }
                }
            }
        }
    }
    JOINT LeftUpLeg
    {
        OFFSET 9.529683 0.000000 0.000000
        CHANNELS 3 Zrotation Xrotation Yrotation
        JOINT LeftLeg
        {
            OFFSET -0.000000 -40.188419 0.000000
            CHANNELS 3 Zrotation Xrotation Yrotation
            JOINT LeftFoot
            {
                OFFSET -0.000000 -39.995377 0.000000
                CHANNELS 3 Zrotation Xrotation Yrotation
                JOINT LeftToeBase
                {
                    OFFSET -0.000000 -6.194294 14.294524
                    CHANNELS 3 Zrotation Xrotation Yrotation
                    End Site
                    {
                        OFFSET -0.000000 0.000000 3.811873
                    }
                }
            }
        }
    }
    JOINT RightUpLeg
    {
        OFFSET -9.529683 0.000000 0.000000
        CHANNELS 3 Zrotation Xrotation Yrotation
        JOINT RightLeg
        {
            OFFSET -0.000000 -40.188419 0.000000
            CHANNELS 3 Zrotation Xrotation Yrotation
            JOINT RightFoot
            {
                OFFSET -0.000000 -39.995377 0.000000
                CHANNELS 3 Zrotation Xrotation Yrotation
                JOINT RightToeBase
                {
                    OFFSET -0.000000 -6.194294 14.294524
                    CHANNELS 3 Zrotation Xrotation Yrotation
                    End Site
                    {
                        OFFSET -0.000000 0.000000 3.811873
                    }
                }
            }
        }
    }
}
MOTION
Frames:    6
Frame Time:    0.004000
-22.941774    82.246986    -204.554153    1.075603    -0.408470    0.974761    -2.103585    -4.242639    -0.909109    -0.944931    0.099362    -0.830430    -1.348935    22.195204    -11.886815    7.005301    0.262655    -11.481895    18.759939    1.426576    4.183899    -18.615974    1.136178    3.379437    1.257222    -1.620100    0.780748    -3.289962    -1.647910    0.669782    -11.798606    2.235371    6.884237    15.451066    1.089909    -3.836497    -1.137049    0.681073    -1.426536    0.897548    0.660682    -0.794024    0.969439    5.910631    -0.669446    -4.652170    -4.666854    -6.002537    6.241448    -3.245533    4.563234    0.000000    0.000000    0.000000    -3.028429    1.955559    0.791382    2.978449    0.037933    0.822990    -3.761479    -5.877433    4.602567    0.000000    0.000000    0.000000    
-22.953308    82.242485    -204.547470    1.067025    -0.414487    0.949350    -2.108770    -4.234720    -0.895452    -0.947546    0.130098    -0.816378    -1.294809    22.154381    -11.811173    6.984438    0.244668    -11.401124    18.774904    1.424633    4.180280    -18.604494    1.142794    3.362940    1.319962    -1.568633    0.801836    -4.114946    -1.610295    0.902509    -11.778277    2.244352    6.863788    15.477983    1.151474    -3.811905    -1.159543    0.604519    -1.417287    0.870371    0.583993    -0.817905    0.999386    5.801552    -0.740365    -4.678331    -4.424633    -6.005114    6.299186    -3.412443    4.680830    0.000000    0.000000    0.000000    -3.017038    1.957185    0.808893    2.988732    0.051455    0.842966    -3.808466    -5.905424    4.594547    0.000000    0.000000    0.000000    
-22.959211    82.239082    -204.542572    1.061434    -0.426285    0.937709    -2.109253    -4.215033    -0.892056    -0.945594    0.129856    -0.813327    -1.280161    22.156557    -11.767192    6.981842    0.214257    -11.352925    18.766581    1.415103    4.177744    -18.573591    1.133668    3.363497    1.324624    -1.524549    0.811061    -4.518200    -1.574800    1.035309    -11.770592    2.270053    6.860774    15.485641    1.159649    -3.793186    -1.170515    0.570394    -1.413996    0.879507    0.549553    -0.830117    1.003337    5.820436    -0.759050    -4.668112    -4.427355    -5.998758    6.305129    -3.440249    4.711209    0.000000    0.000000    0.000000    -3.011462    1.911699    0.412439    2.993489    0.196918    1.344192    -3.802098    -5.981362    4.487908    0.000000    0.000000    0.000000    
-22.966167    82.237419    -204.536957    1.056303    -0.436606    0.923880    -2.111733    -4.204648    -0.884778    -0.950357    0.140516    -0.806050    -1.227793    22.147400    -11.710435    6.942952    0.189096    -11.294489    18.789740    1.405755    4.162163    -18.578417    1.130127    3.372666    1.360654    -1.465110    0.822570    -5.034328    -1.525492    1.151565    -11.751143    2.260793    6.863856    15.482490    1.162580    -3.798875    -1.162937    0.549490    -1.404443    0.889623    0.528476    -0.868853    1.005478    5.831402    -0.742151    -4.659276    -4.419608    -5.980446    6.304175    -3.460430    4.688413    0.000000    0.000000    0.000000    -3.005256    1.919055    0.419929    2.997533    0.210826    1.380962    -3.818607    -5.990101    4.462061    0.000000    0.000000    0.000000    
-22.972420    82.233307    -204.534073    1.054130    -0.441393    0.913693    -2.123492    -4.190895    -0.881252    -0.934950    0.139337    -0.802454    -1.223416    22.128092    -11.658389    6.941489    0.202356    -11.240687    18.779268    1.410423    4.157613    -18.550196    1.107193    3.363170    1.362816    -1.413872    0.839675    -5.440337    -1.485069    1.287953    -11.758792    2.291200    6.859050    15.510962    1.214764    -3.780367    -1.190176    0.492651    -1.403382    0.903644    0.471271    -0.881278    1.003703    5.836176    -0.731479    -4.645585    -4.410378    -5.989282    6.311141    -3.491144    4.705279    0.000000    0.000000    0.000000    -2.999685    1.922377    0.423683    2.998777    0.208400    1.369206    -3.811162    -6.003077    4.490744    0.000000    0.000000    0.000000    
-22.977390    82.232140    -204.529312    1.052173    -0.452207    0.897918    -2.126986    -4.179330    -0.872904    -0.936309    0.148833    -0.794072    -1.177646    22.124763    -11.596273    6.898607    0.166207    -11.177020    18.789236    1.408738    4.145236    -18.538956    1.082431    3.360865    1.374322    -1.347649    0.859788    -5.885642    -1.430746    1.416435    -11.745504    2.311023    6.854342    15.500610    1.182816    -3.767479    -1.184126    0.475154    -1.401659    0.912858    0.453724    -0.892243    1.005292    5.845352    -0.739554    -4.645539    -4.404919    -5.962863    6.339347    -3.489184    4.690686    0.000000    0.000000    0.000000    -2.992560    1.930498    0.419670    2.992100    0.219218    1.388384    -3.806836    -6.012702    4.497838    0.000000    0.000000    0.000000    
